Coordinates
version=1
nRows=22
nColumns=24
inDegrees=yes

Units are S.I. units (second, meters, Newtons, ...)
Angles are in degrees.

endheader
time	pelvis_tilt	pelvis_list	pelvis_rotation	pelvis_tx	pelvis_ty	pelvis_tz	hip_flexion_r	hip_adduction_r	hip_rotation_r	knee_angle_r	ankle_angle_r	subtalar_angle_r	mtp_angle_r	hip_flexion_l	hip_adduction_l	hip_rotation_l	knee_angle_l	ankle_angle_l	subtalar_angle_l	mtp_angle_l	lumbar_extension	lumbar_bending	lumbar_rotation
      2.60000000	     24.20944256	     -0.50752919	      4.58087149	      0.52522625	      0.84243350	      0.02167579	    -35.95884851	      2.52932153	    -19.55188980	    -37.45940861	     22.36226991	     19.28037781	     55.82793603	     -4.37870218	      1.36253625	     -7.81141403	    -20.16226071	     12.83329329	      3.58147468	     47.88565983	    -39.29361261	      1.85136029	     -9.33617698
      2.60500000	     24.13380382	     -0.15800161	      4.54898634	      0.53130486	      0.84276878	      0.02108619	    -35.13813102	      1.75149550	    -20.00345748	    -39.84556016	     21.03587443	     18.44865075	     58.13623571	     -4.56161975	      1.78876355	     -7.42283953	    -20.69917282	     13.21944897	      3.39372618	     46.71370660	    -39.19163257	      1.48199939	     -9.54420874
      2.61000000	     24.01472656	      0.14602831	      4.48176502	      0.53733332	      0.84304978	      0.02057146	    -34.22788535	      0.99859805	    -20.30855890	    -42.24524586	     19.92811812	     17.56629004	     58.18119862	     -4.71040689	      2.15375177	     -7.18862945	    -21.19104748	     13.62521389	      3.38969648	     46.62016544	    -39.04779085	      1.13288372	     -9.65803944
      2.61500000	     23.85408474	      0.42546670	      4.47757168	      0.54330087	      0.84329309	      0.01995398	    -33.26505924	      0.30533694	    -20.59338559	    -44.54085548	     18.73147737	     16.55319075	     58.51549151	     -4.81552047	      2.50306826	     -6.87064590	    -21.66502454	     14.09055044	      3.21076775	     46.16412069	    -38.86083616	      0.84456721	     -9.83543426
      2.62000000	     23.75140549	      0.74555214	      4.41382874	      0.54931721	      0.84362542	      0.01942207	    -32.37063237	     -0.44610815	    -20.82292332	    -46.75147444	     17.77723109	     15.38889816	     58.56236794	     -5.07015444	      2.88554511	     -6.71312626	    -21.96706097	     14.60821630	      3.27901268	     45.85775181	    -38.73151240	      0.48955502	     -9.97459470
      2.62500000	     23.63512332	      1.03935429	      4.37433003	      0.55530925	      0.84397936	      0.01888362	    -31.45999350	     -1.14730795	    -21.02011739	    -48.84357183	     16.89045449	     14.14684082	     58.41513357	     -5.32606054	      3.22864581	     -6.59525519	    -22.22324823	     15.08053341	      3.42256937	     45.53927515	    -38.58599164	      0.17079528	    -10.12214336
      2.63000000	     23.52544714	      1.29553086	      4.36655216	      0.56126897	      0.84432301	      0.01834284	    -30.55775005	     -1.77328460	    -21.17279405	    -50.82233792	     16.23309401	     12.92166537	     57.12352288	     -5.57817276	      3.50203907	     -6.56676320	    -22.52314530	     15.79854390	      4.03464517	     43.44779543	    -38.44611753	     -0.09292367	    -10.27914478
      2.63500000	     23.42997064	      1.52561505	      4.33993341	      0.56714067	      0.84474757	      0.01780713	    -29.65318413	     -2.36365159	    -21.25175557	    -52.67689691	     15.62559771	     11.49152312	     56.64774543	     -5.89041047	      3.76228451	     -6.55336603	    -22.67077864	     16.21287246	      4.19488705	     43.26944918	    -38.32890128	     -0.33559672	    -10.39223529
      2.64000000	     23.34073601	      1.71860397	      4.31327364	      0.57302524	      0.84517306	      0.01734835	    -28.76050354	     -2.88101503	    -21.26087344	    -54.41257888	     15.44780796	     10.19530944	     54.49221127	     -6.22222759	      3.95344555	     -6.64714359	    -22.80492993	     16.82662046	      4.78254900	     42.40482064	    -38.20904547	     -0.54800509	    -10.49572786
      2.64500000	     23.24671453	      1.86630762	      4.30985827	      0.57876556	      0.84564521	      0.01682338	    -27.83879413	     -3.32473809	    -21.23738100	    -56.01100118	     15.17972584	      8.64064575	     53.93265324	     -6.56283637	      4.11258293	     -6.67778520	    -22.85302309	     17.24826179	      5.01868611	     42.28992024	    -38.09773784	     -0.69467025	    -10.58913378
      2.65000000	     23.18264509	      1.98809809	      4.28148976	      0.58451150	      0.84613875	      0.01642054	    -26.94822193	     -3.72660504	    -21.16271916	    -57.51751584	     15.33782004	      7.43923792	     50.94574633	     -6.92383583	      4.20582699	     -6.89788882	    -22.95193817	     17.81642771	      5.71987448	     41.31909066	    -38.01152547	     -0.83637067	    -10.64713071
      2.65500000	     23.10183902	      2.04215560	      4.32521814	      0.59012473	      0.84665895	      0.01591016	    -26.03461229	     -3.99807846	    -21.09365867	    -58.83433038	     15.38460684	      5.87339447	     50.36199620	     -7.26977380	      4.24046835	     -6.95969696	    -22.98658986	     18.25406430	      6.05621088	     41.21170846	    -37.91545035	     -0.86603814	    -10.75418031
      2.66000000	     23.05770641	      2.08961280	      4.31991584	      0.59574498	      0.84721002	      0.01552085	    -25.15238851	     -4.26908771	    -20.98049548	    -60.07894499	     15.79835412	      4.75245844	     47.40780276	     -7.65581281	      4.24043838	     -7.21447015	    -23.04531711	     18.82555043	      6.82084467	     40.27911881	    -37.85407875	     -0.91834009	    -10.79646263
      2.66500000	     22.99006054	      2.05429499	      4.37034082	      0.60119307	      0.84776765	      0.01506455	    -24.22848442	     -4.39794686	    -20.84929000	    -61.14299341	     16.12287610	      3.28972739	     46.81568882	     -7.99520592	      4.16829264	     -7.32426672	    -23.08719328	     19.25609659	      7.13995955	     40.15027423	    -37.78067561	     -0.85558232	    -10.85081471
      2.67000000	     22.93470260	      2.02658681	      4.36593899	      0.60665281	      0.84835103	      0.01471552	    -23.30960967	     -4.54520757	    -20.66928700	    -62.13801555	     16.78807011	      2.32850307	     43.98319210	     -8.37433723	      4.09647646	     -7.54606863	    -23.08162893	     19.72631915	      7.77510631	     39.14353827	    -37.71709823	     -0.83143561	    -10.87757937
      2.67500000	     22.85753763	      1.96023983	      4.39820387	      0.61200024	      0.84891530	      0.01431344	    -22.35395444	     -4.62392735	    -20.51123714	    -62.98347311	     17.21713953	      1.12801865	     43.62882634	     -8.71937290	      3.99655762	     -7.66752302	    -23.05294614	     20.09207756	      8.13405545	     39.09090020	    -37.63904816	     -0.74525576	    -10.92782203
      2.68000000	     22.83503123	      1.84212854	      4.39612158	      0.61730228	      0.84952110	      0.01404217	    -21.45130690	     -4.62748839	    -20.28944068	    -63.71895286	     18.01604920	      0.35510467	     41.10279820	     -9.09537145	      3.81773940	     -7.91972523	    -23.10365470	     20.61295038	      8.71336625	     38.13679378	    -37.61891596	     -0.63052563	    -10.90896361
      2.68500000	     22.76961835	      1.68675352	      4.44761457	      0.62252671	      0.85008821	      0.01371361	    -20.50291674	     -4.55607095	    -20.10806538	    -64.29695185	     18.63566540	     -0.56181347	     40.59495953	     -9.40713772	      3.60597079	     -8.06139435	    -23.15143938	     21.03364639	      9.08977016	     37.96636826	    -37.55725091	     -0.45072747	    -10.94780814
      2.69000000	     22.72745707	      1.56666398	      4.43062147	      0.62774479	      0.85067146	      0.01348126	    -19.56968170	     -4.54155643	    -19.89680595	    -64.81432177	     19.43478392	     -1.13469425	     38.86548235	     -9.78445040	      3.44475690	     -8.24964810	    -23.11680227	     21.46647482	      9.60352081	     37.24933889	    -37.52374092	     -0.33917410	    -10.94243305
      2.69500000	     22.62348657	      1.37702668	      4.46074179	      0.63283165	      0.85115146	      0.01321455	    -18.55741051	     -4.41541385	    -19.68323505	    -65.19542923	     20.19714723	     -1.67581777	     38.30311406	    -10.03380621	      3.21583600	     -8.34882648	    -23.17485032	     21.82864321	      9.81158004	     36.99115283	    -37.43387836	     -0.13701174	    -10.95199799
      2.70000000	     22.53446754	      1.22633030	      4.38700068	      0.63795805	      0.85165291	      0.01308179	    -17.54948547	     -4.35824587	    -19.40190506	    -65.50006654	     20.95716131	     -2.01904248	     38.00501446	    -10.36284996	      3.05629249	     -8.53396377	    -23.09482404	     22.11612050	      9.97050719	     36.87838344	    -37.35778927	     -0.02670254	    -10.89458815
      2.70500000	     22.52091624	      1.01516332	      4.38021065	      0.64302171	      0.85220670	      0.01295807	    -16.65566889	     -4.16916107	    -19.16595432	    -65.63494875	     21.91496519	     -2.11724378	     35.89470783	    -10.72809494	      2.79429621	     -8.68365478	    -23.12587591	     22.62588503	     10.37202137	     35.93330871	    -37.36495893	      0.17681715	    -10.86203035
